<svg width="800" height="500" viewBox="0 0 800 500" xmlns="http://www.w3.org/2000/svg" role="img" aria-labelledby="title01 desc01">
  <title id="title01">Cena de verão com a Cigarra dançando e a Formiga trabalhando</title>
  <desc id="desc01">A Cigarra canta em uma flor enquanto a Formiga carrega grãos rumo ao formigueiro sob um sol intenso.</desc>
  <defs>
    <linearGradient id="skySummer" x1="0" y1="0" x2="0" y2="1">
      <stop offset="0%" stop-color="#FFE88A"/>
      <stop offset="100%" stop-color="#8ED174"/>
    </linearGradient>
    <linearGradient id="grassSummer" x1="0" y1="0" x2="0" y2="1">
      <stop offset="0%" stop-color="#9AE67C"/>
      <stop offset="100%" stop-color="#46B05C"/>
    </linearGradient>
  </defs>

  <rect width="800" height="500" fill="url(#skySummer)"/>
  <ellipse cx="400" cy="430" rx="360" ry="90" fill="url(#grassSummer)"/>
  <circle cx="640" cy="90" r="70" fill="#FFD14A" opacity="0.95"/>

  <!-- Flor principal -->
  <g transform="translate(250,280) scale(1.2)">
    <ellipse cx="0" cy="90" rx="60" ry="18" fill="rgba(0,0,0,0.1)"/>
    <path d="M0 0 C40 40 40 120 0 160 C-40 120 -40 40 0 0Z" fill="#FF6B9A"/>
    <circle cx="0" cy="100" r="38" fill="#FCD34D"/>
  </g>

  <!-- Cigarra dançando -->
  <g transform="translate(260,210)">
    <ellipse cx="0" cy="150" rx="42" ry="18" fill="rgba(0,0,0,0.15)"/>
    <path d="M0 0 C40 20 40 70 0 90 C-40 70 -40 20 0 0Z" fill="#3AA36F"/>
    <ellipse cx="0" cy="34" rx="32" ry="26" fill="#4BC98A"/>
    <circle cx="-6" cy="30" r="6" fill="#1F2937"/>
    <circle cx="10" cy="30" r="6" fill="#1F2937"/>
    <path d="M-12 52 Q0 62 12 52" stroke="#1F2937" stroke-width="4" stroke-linecap="round"/>
    <path d="M-38 12 Q-70 -4 -58 -32" stroke="#2D8A5F" stroke-width="10" stroke-linecap="round"/>
    <path d="M38 12 Q70 -4 58 -32" stroke="#2D8A5F" stroke-width="10" stroke-linecap="round"/>
    <path d="M-18 78 Q-46 104 -22 110" stroke="#2D8A5F" stroke-width="10" stroke-linecap="round"/>
    <path d="M18 78 Q46 104 22 112" stroke="#2D8A5F" stroke-width="10" stroke-linecap="round"/>
    <path d="M-40 118 Q0 146 40 118" fill="#A2F5C5" opacity="0.8"/>
    <g fill="#ffffff" opacity="0.6">
      <circle cx="50" cy="-24" r="6"/>
      <circle cx="70" cy="-42" r="5"/>
      <circle cx="86" cy="-20" r="4"/>
    </g>
  </g>

  <!-- Formiga carregando grãos -->
  <g transform="translate(520,310)">
    <ellipse cx="0" cy="140" rx="45" ry="16" fill="rgba(0,0,0,0.15)"/>
    <ellipse cx="0" cy="84" rx="40" ry="46" fill="#2A1C19"/>
    <ellipse cx="-42" cy="60" rx="30" ry="34" fill="#341F1B"/>
    <ellipse cx="44" cy="60" rx="30" ry="34" fill="#341F1B"/>
    <circle cx="-56" cy="36" r="8" fill="#FDE68A"/>
    <circle cx="-32" cy="36" r="8" fill="#FDE68A"/>
    <path d="M-50 92 Q-70 142 -28 150" stroke="#3E261F" stroke-width="10" stroke-linecap="round"/>
    <path d="M50 92 Q70 142 28 150" stroke="#3E261F" stroke-width="10" stroke-linecap="round"/>
    <path d="M0 66 L0 -32" stroke="#3E261F" stroke-width="16" stroke-linecap="round"/>
    <ellipse cx="0" cy="-52" rx="68" ry="28" fill="#AF7B42"/>
    <ellipse cx="0" cy="-54" rx="54" ry="18" fill="#C89F62"/>
    <path d="M0 -100 Q-32 -126 -6 -150" stroke="#341F1B" stroke-width="12" stroke-linecap="round"/>
    <path d="M0 -100 Q32 -126 6 -150" stroke="#341F1B" stroke-width="12" stroke-linecap="round"/>
  </g>

  <!-- Formigueiro ao fundo -->
  <g transform="translate(600,360)">
    <path d="M0 0 C40 -60 120 -60 160 0 L160 90 L0 90 Z" fill="#6B3E24"/>
    <ellipse cx="80" cy="10" rx="24" ry="12" fill="#3F2414"/>
  </g>

  <!-- Detalhes flora -->
  <g fill="#76C26B">
    <path d="M60 380 Q72 332 84 380 Z"/>
    <path d="M120 400 Q138 330 156 400 Z"/>
    <path d="M660 380 Q676 320 692 380 Z"/>
  </g>
</svg>